<?xml version="1.0" encoding="UTF-8" standalone="no"?>
<!-- Created with Inkscape (http://www.inkscape.org/) -->

<svg
   width="205.96989mm"
   height="49.228065mm"
   viewBox="0 0 205.96989 49.228065"
   version="1.1"
   id="svg1"
   xml:space="preserve"
   inkscape:version="1.4.2 (ebf0e940d0, 2025-05-08)"
   sodipodi:docname="logo_vitrino.svg"
   xmlns:inkscape="http://www.inkscape.org/namespaces/inkscape"
   xmlns:sodipodi="http://sodipodi.sourceforge.net/DTD/sodipodi-0.dtd"
   xmlns="http://www.w3.org/2000/svg"
   xmlns:svg="http://www.w3.org/2000/svg"><sodipodi:namedview
     id="namedview1"
     pagecolor="#ffffff"
     bordercolor="#000000"
     borderopacity="0.25"
     inkscape:showpageshadow="2"
     inkscape:pageopacity="0.0"
     inkscape:pagecheckerboard="0"
     inkscape:deskcolor="#d1d1d1"
     inkscape:document-units="mm"
     inkscape:zoom="0.74208053"
     inkscape:cx="299.83269"
     inkscape:cy="179.89961"
     inkscape:window-width="1920"
     inkscape:window-height="1012"
     inkscape:window-x="0"
     inkscape:window-y="0"
     inkscape:window-maximized="1"
     inkscape:current-layer="layer1" /><defs
     id="defs1" /><g
     inkscape:label="Camada 1"
     inkscape:groupmode="layer"
     id="layer1"
     transform="translate(-4.0301118,-70.837662)"><g
       id="g5"><path
         id="path4"
         style="fill:#ffffff;fill-opacity:1;stroke:#17c960;stroke-width:1.565;stroke-linecap:square;stroke-opacity:1;paint-order:markers stroke fill"
         d="m -19.714103,88.220712 c -0.729113,-0.729113 -1.737561,-1.178439 -2.854929,-1.178439 l -27.413241,-3.66e-4 v -7.383425 c 0,-2.234736 -1.798998,-4.033734 -4.033734,-4.033734 -2.234735,0 -4.033734,1.798998 -4.033734,4.033734 v 11.417525 c 0,2.234735 1.798999,4.033734 4.033734,4.033734 0.003,0 0.0058,6e-6 0.0088,0 0.0032,7e-6 0.0063,0 0.0095,0 h 31.428704 c 2.234735,0 4.033734,-1.798999 4.033734,-4.033734 0,-1.117368 -0.449692,-2.126182 -1.178805,-2.855295 z"
         transform="rotate(-45)" /><rect
         style="fill:#2b72fa;fill-opacity:1;stroke:none;stroke-width:1.565;stroke-linecap:square;paint-order:markers stroke fill"
         id="rect1"
         width="34.406361"
         height="27.721191"
         x="19.342438"
         y="92.344536"
         ry="3.8328331" /><rect
         style="fill:#17c960;fill-opacity:1;stroke:none;stroke-width:1.565;stroke-linecap:square;paint-order:markers stroke fill"
         id="rect2"
         width="34.406361"
         height="27.721191"
         x="4.0301118"
         y="70.837662"
         ry="3.8328331" /><path
         id="rect3"
         style="fill:#17c960;fill-opacity:1;stroke:#ffffff;stroke-width:1.565;stroke-linecap:square;paint-order:markers stroke fill"
         d="m 15.411337,92.311962 c -1.246284,1.453739 -0.941647,3.814546 0.543865,4.988141 2.715363,2.684595 5.372076,5.433807 8.124355,8.077757 1.458044,1.18603 3.751549,0.84365 4.90464,-0.60563 7.388267,-7.404804 14.81038,-14.777277 22.177465,-22.202322 1.403672,-1.612117 0.829039,-4.369911 -1.082757,-5.311587 -1.493139,-0.831552 -3.446211,-0.322415 -4.485735,0.994344 -6.46292,6.462034 -12.925912,12.923997 -19.388788,19.386075 -2.019743,-1.974133 -3.95297,-4.04525 -6.028006,-5.957496 -1.451739,-1.097757 -3.638872,-0.792733 -4.765039,0.630718 z" /><path
         id="path5"
         style="fill:#55ff99;fill-opacity:1;stroke:none;stroke-width:1.565;stroke-linecap:square;paint-order:markers stroke fill"
         d="m 15.411337,92.311962 c -1.246284,1.453739 -0.941647,3.814546 0.543865,4.988141 2.715363,2.684595 -0.486679,-0.382341 2.2656,2.261609 C 30.406213,108.9846 32.347214,90.748796 45.59317,78.252665 46.228649,77.653159 26.204382,97.63874 26.204382,97.63874 c 0,0 -3.95297,-4.04525 -6.028006,-5.957496 -1.451739,-1.097757 -3.638872,-0.792733 -4.765039,0.630718 z"
         sodipodi:nodetypes="cccsccc" /></g><path
       style="font-weight:bold;font-size:57.3616px;line-height:0.7;font-family:Carlito;-inkscape-font-specification:'Carlito Bold';text-align:center;letter-spacing:-2.24069px;text-anchor:middle;stroke-width:1.56499;stroke-linecap:square;paint-order:markers stroke fill"
       d="m 61.218377,78.170395 h 5.909813 q 0.952292,0 1.540473,0.448137 0.616189,0.448138 0.924283,1.176361 l 7.002149,21.958737 q 0.420129,1.14835 0.840258,2.49277 0.420128,1.34441 0.78424,2.80085 0.308095,-1.48445 0.672206,-2.82886 0.392121,-1.37242 0.840258,-2.52078 l 6.97414,-21.902717 q 0.224069,-0.644197 0.868266,-1.120344 0.644198,-0.504154 1.568482,-0.504154 h 5.937821 L 81.46859,115.36581 H 74.830553 Z M 95.388859,115.36581 Z M 103.48334,87.553273 V 115.36581 H 96.36916 V 87.553273 Z m 0.86827,-7.982449 q 0,0.924284 -0.36411,1.736533 -0.36411,0.784241 -0.9803,1.40043 -0.61619,0.58818 -1.45645,0.952292 -0.84026,0.336103 -1.764542,0.336103 -0.896275,0 -1.708524,-0.336103 -0.784241,-0.364112 -1.40043,-0.952292 -0.58818,-0.616189 -0.952292,-1.40043 -0.336103,-0.812249 -0.336103,-1.736533 0,-0.924283 0.336103,-1.736532 0.364112,-0.81225 0.952292,-1.40043 0.616189,-0.616189 1.40043,-0.952292 0.812249,-0.364112 1.708524,-0.364112 0.924282,0 1.764542,0.364112 0.84026,0.336103 1.45645,0.952292 0.61619,0.58818 0.9803,1.40043 0.36411,0.812249 0.36411,1.736532 z m 12.23975,36.215116 q -3.61311,0 -5.5457,-2.07264 -1.93259,-2.10064 -1.93259,-5.74176 V 92.79088 h -2.52078 q -0.56017,0 -0.95229,-0.364111 -0.39212,-0.392121 -0.39212,-1.120344 v -2.828868 l 4.2293,-0.812249 1.48445,-7.338252 q 0.25208,-1.148352 1.56848,-1.148352 h 3.69714 v 8.57063 h 6.8621 v 5.041546 h -6.8621 v 14.70451 q 0,1.23238 0.53216,1.93259 0.53217,0.67221 1.51247,0.67221 0.53216,0 0.86826,-0.11203 0.36411,-0.14005 0.61619,-0.3081 0.25208,-0.16805 0.44814,-0.28008 0.22407,-0.14005 0.47615,-0.14005 0.30809,0 0.50415,0.16805 0.19606,0.14005 0.42013,0.47615 l 2.15666,3.44506 q -1.45645,1.20437 -3.33302,1.82056 -1.84857,0.61619 -3.83718,0.61619 z m 8.85071,-0.42013 V 87.553273 h 4.17329 q 1.09233,0 1.51246,0.392121 0.44814,0.39212 0.58818,1.372421 l 0.36411,2.828868 q 1.26039,-2.380731 2.9409,-3.753152 1.68052,-1.372421 3.8932,-1.372421 1.82056,0 2.99692,0.868267 l -0.53217,5.321632 q -0.056,0.504155 -0.3361,0.728224 -0.28008,0.19606 -0.75623,0.19606 -0.42013,0 -1.20437,-0.112034 -0.78424,-0.140043 -1.45645,-0.140043 -0.9803,0 -1.76454,0.280085 -0.75623,0.280086 -1.37242,0.840258 -0.58818,0.532164 -1.06433,1.316404 -0.47614,0.784241 -0.86826,1.79255 v 17.253297 z m 17.5894,0 z m 8.09448,-27.812537 v 27.812537 h -7.11418 V 87.553273 Z m 0.86827,-7.982449 q 0,0.924284 -0.36411,1.736533 -0.36411,0.784241 -0.9803,1.40043 -0.61619,0.58818 -1.45645,0.952292 -0.84026,0.336103 -1.76454,0.336103 -0.89628,0 -1.70853,-0.336103 -0.78424,-0.364112 -1.40043,-0.952292 -0.58818,-0.616189 -0.95229,-1.40043 -0.3361,-0.812249 -0.3361,-1.736533 0,-0.924283 0.3361,-1.736532 0.36411,-0.81225 0.95229,-1.40043 0.61619,-0.616189 1.40043,-0.952292 0.81225,-0.364112 1.70853,-0.364112 0.92428,0 1.76454,0.364112 0.84026,0.336103 1.45645,0.952292 0.61619,0.58818 0.9803,1.40043 0.36411,0.812249 0.36411,1.736532 z m 3.83718,35.794986 V 87.553273 h 4.36934 q 0.6722,0 1.12034,0.308095 0.47615,0.308095 0.61619,0.952292 l 0.47614,2.044627 q 0.84026,-0.840257 1.73654,-1.512464 0.89627,-0.700214 1.93259,-1.17636 1.03632,-0.504155 2.18467,-0.784241 1.17636,-0.280086 2.57679,-0.280086 2.2687,0 4.00523,0.784241 1.73653,0.78424 2.91289,2.18467 1.17636,1.40043 1.76455,3.361031 0.61618,1.932593 0.61618,4.229298 v 17.701434 h -7.11418 V 97.664376 q 0,-2.380731 -1.09233,-3.697135 -1.09234,-1.316404 -3.27701,-1.316404 -1.6245,0 -3.05294,0.700215 -1.40043,0.700215 -2.66081,1.960602 v 20.054156 z m 40.52842,-28.260674 q 3.05294,0 5.57371,1.008309 2.52078,0.980301 4.31333,2.856877 1.79255,1.848567 2.77285,4.509383 0.9803,2.632808 0.9803,5.909815 0,3.33302 -0.9803,5.99384 -0.9803,2.66081 -2.77285,4.53739 -1.79255,1.84857 -4.31333,2.85688 -2.52077,1.00831 -5.57371,1.00831 -3.08094,0 -5.62973,-1.00831 -2.52077,-1.00831 -4.34133,-2.85688 -1.79255,-1.87658 -2.77285,-4.53739 -0.9803,-2.66082 -0.9803,-5.99384 0,-3.277007 0.9803,-5.909815 0.9803,-2.660816 2.77285,-4.509383 1.82056,-1.876576 4.34133,-2.856877 2.54879,-1.008309 5.62973,-1.008309 z m 0,23.247134 q 3.22099,0 4.76146,-2.24069 1.54048,-2.2687 1.54048,-6.66604 0,-4.397353 -1.54048,-6.638041 -1.54047,-2.268696 -4.76146,-2.268696 -3.277,0 -4.84548,2.268696 -1.54048,2.240688 -1.54048,6.638041 0,4.39734 1.54048,6.66604 1.56848,2.24069 4.84548,2.24069 z"
       id="text5"
       aria-label="Vitrino" /></g></svg>
